<svg xmlns="http://www.w3.org/2000/svg" viewBox="0 0 2456.73 968.55"><defs><style>.cls-1{fill:#d62b2b;}</style></defs><title>caverna - raiva</title><g id="Camada_2" data-name="Camada 2"><g id="Camada_1-2" data-name="Camada 1"><path class="cls-1" d="M56.75,968.47c-38.12-.72-65.16-37.4-54.35-74,8.09-27.37,16.93-57.7,22.33-77.49,12-44-9-109,23-191s57-60,59-159,92-162,103-218,99-100,114-184,1537-81,1633-23,107,206,177,322,17,116,125,212,151,222,157,265,41,46,41,75-401-29-523,6-207,32-361,14c-146.87-17.17-438-12-537-2-91.12,9.2-576,46-665,23C301.36,939.09,157.86,970.37,56.75,968.47Z"/></g></g></svg>