<svg xmlns="http://www.w3.org/2000/svg" viewBox="0 0 4060 2218"><defs><style>.cls-1{fill:#fcee21;}</style></defs><title>chao felicidade</title><g id="Camada_2" data-name="Camada 2"><g id="Camada_1-2" data-name="Camada 1"><path class="cls-1" d="M3460,0c-49,0-31,23-41,49s-6,208,10,226,25,119-17,166-434,73-445,82,0,55,7,60,91-21,176-12,132,49,158,44,38,27,57,66,71-2,73,75-60,81-60,81H2867.75v-.06H2556.51C2515,836.88,2256,804,2169,819s-454-6-506-13-135,13-192,13-300-8-419-13-161,9-226,13-124-24-220-43-96-52-224-83S0,679,0,679V2218H4060V0Z"/></g></g></svg>