<svg xmlns="http://www.w3.org/2000/svg" viewBox="0 0 392 293"><defs><style>.cls-1{fill:#020202;}</style></defs><title>Empurra</title><g id="Camada_2" data-name="Camada 2"><g id="Camada_1-2" data-name="Camada 1"><path class="cls-1" d="M235.67,152.66c0-4.18-3-6-7.44-6a17.34,17.34,0,0,0-4.13.38V158.8h4.27C232.84,158.8,235.67,156.35,235.67,152.66Z"/><path class="cls-1" d="M261.5,152.66c0-4.18-3-6-7.45-6a17.3,17.3,0,0,0-4.12.38V158.8h4.27C258.66,158.8,261.5,156.35,261.5,152.66Z"/><path class="cls-1" d="M171.45,146.71a17.75,17.75,0,0,0-3.94.33v12.58A14,14,0,0,0,171,160c5,0,8.11-2.45,8.11-6.92C179.08,148.77,176.06,146.71,171.45,146.71Z"/><path class="cls-1" d="M380,0H12A12,12,0,0,0,0,12V281a12,12,0,0,0,12,12H380a12,12,0,0,0,12-12V12A12,12,0,0,0,380,0ZM119.32,176H101.13V143.63H118.6v3.51H105.3v10.22h12.58v3.46H105.3v11.66h14Zm33.51,0L152,161.78c-.24-4.51-.53-9.94-.48-14h-.14c-1.11,3.79-2.45,7.82-4.09,12.29l-5.71,15.7h-3.17l-5.23-15.41c-1.53-4.56-2.83-8.74-3.74-12.58h-.1c-.09,4-.33,9.46-.62,14.31L127.86,176h-4l2.25-32.36h5.33L137,159.28c1.35,4,2.45,7.54,3.27,10.9h.14c.82-3.26,2-6.82,3.41-10.9l5.76-15.65h5.33l2,32.36Zm27.93-16.23c-2.21,2.36-5.81,3.56-9.89,3.56a14.36,14.36,0,0,1-3.36-.29v13h-4.18V144a48,48,0,0,1,8-.63c4.13,0,7.15,1,9.07,2.69a8.7,8.7,0,0,1,2.84,6.77A9.53,9.53,0,0,1,180.76,159.76Zm31.92,2.74c0,9.94-5.23,14-12.24,14-6.62,0-11.62-3.8-11.62-13.83V143.63h4.23v19.16c0,7.25,3.21,10.32,7.53,10.32,4.8,0,7.88-3.17,7.88-10.32V143.63h4.22Zm24,13.49c-.53-.91-1.25-3.7-2.16-7.73-1-4.46-2.69-6.14-6.48-6.29H224.1v14h-4.17V144.07a42.67,42.67,0,0,1,8-.68c4.47,0,7.35.82,9.36,2.64a8,8,0,0,1,2.55,6.15,8.51,8.51,0,0,1-6.1,8.26v.14c2.5.86,4,3.17,4.75,6.53,1.06,4.51,1.83,7.63,2.5,8.88Zm25.82,0c-.52-.91-1.25-3.7-2.16-7.73-1-4.46-2.68-6.14-6.48-6.29h-3.93v14h-4.18V144.07a42.79,42.79,0,0,1,8-.68c4.46,0,7.34.82,9.36,2.64a8.07,8.07,0,0,1,2.54,6.15,8.51,8.51,0,0,1-6.09,8.26v.14c2.49.86,4,3.17,4.75,6.53,1.05,4.51,1.82,7.63,2.49,8.88ZM292,176l-3.45-10.18H277L273.68,176h-4.32l11-32.36h5l11,32.36Z"/><path class="cls-1" d="M282.81,147.33h-.1c-.48,1.92-1,3.89-1.63,5.86l-3.17,9.36h9.74l-3.16-9.32C283.77,151.12,283.29,149.2,282.81,147.33Z"/></g></g></svg>