<svg xmlns="http://www.w3.org/2000/svg" viewBox="0 0 271 271"><defs><style>.cls-1{fill:#020202;}</style></defs><title>Quebra</title><g id="Camada_2" data-name="Camada 2"><g id="Camada_1-2" data-name="Camada 1"><path class="cls-1" d="M155.88,149.25h-3.8v13.59a24.45,24.45,0,0,0,3.86.21c4.76,0,9.15-1.74,9.15-6.92C165.09,151.26,160.91,149.25,155.88,149.25Z"/><path class="cls-1" d="M193.48,140.63c0-4.6-3.33-6.61-8.2-6.66a19,19,0,0,0-4.54.42v13h4.7C190.36,147.4,193.48,144.7,193.48,140.63Z"/><path class="cls-1" d="M76.41,148.35c0-7.14-3.7-14.49-11.26-14.49-7.78,0-11.58,7.2-11.53,14.92,0,7.56,4.12,14.38,11.32,14.38C72.29,163.16,76.41,156.5,76.41,148.35Z"/><path class="cls-1" d="M164,139.79c0-4.18-3.18-5.82-7.83-5.82a19.51,19.51,0,0,0-4.07.32v11.47h4.17C161.12,145.76,164,143.22,164,139.79Z"/><path class="cls-1" d="M217,134.76h-.11c-.53,2.12-1.11,4.29-1.8,6.45l-3.49,10.32H222.3l-3.49-10.26C218,138.94,217.49,136.82,217,134.76Z"/><path class="cls-1" d="M257.78,0H13.22A13.26,13.26,0,0,0,0,13.22V257.78A13.26,13.26,0,0,0,13.22,271H257.78A13.26,13.26,0,0,0,271,257.78V13.22A13.26,13.26,0,0,0,257.78,0ZM80.22,171.57c-4.81-1.27-9.52-2.7-13.65-4.13a7,7,0,0,0-2.16-.53c-8.46-.31-15.71-6.55-15.71-18s7-18.77,16.61-18.77,16,7.51,16,18c0,9.15-4.24,15-10.16,17.08v.21c3.55.9,7.41,1.75,10.42,2.28Zm33.26-20.1c0,10.95-5.77,15.44-13.49,15.44-7.3,0-12.79-4.17-12.79-15.23v-21h4.65v21.1c0,8,3.54,11.37,8.3,11.37,5.29,0,8.67-3.49,8.67-11.37v-21.1h4.66Zm28,14.86h-20V130.69h19.25v3.86H126.06v11.26h13.86v3.81H126.06v12.85H141.5Zm25.44-3c-2.49,2.27-6.51,3.33-12.33,3.33a54,54,0,0,1-7.13-.42V131.17a44,44,0,0,1,8.4-.74c4.6,0,7.57.79,9.79,2.59a7.47,7.47,0,0,1,3,6.29c0,3.44-2.27,6.45-6,7.83v.1c3.39.85,7.35,3.65,7.35,8.94A9.64,9.64,0,0,1,166.94,163.32Zm27.65,3c-.58-1-1.37-4.07-2.38-8.51-1.06-4.92-3-6.77-7.14-6.93h-4.33v15.44h-4.6V131.17a47.45,47.45,0,0,1,8.83-.74c4.91,0,8.09.89,10.31,2.9a8.88,8.88,0,0,1,2.8,6.77,9.36,9.36,0,0,1-6.71,9.1v.16c2.75.95,4.38,3.49,5.23,7.19,1.16,5,2,8.41,2.75,9.78Zm32.47,0-3.81-11.21H210.61l-3.7,11.21h-4.76l12.11-35.64h5.55L232,166.33Z"/></g></g></svg>